<svg href="/" version="1.1" viewBox="0 0 16.738 10.174" xmlns="http://www.w3.org/2000/svg" xmlnscc="http://creativecommons.org/ns#" xmlnsdc="http://purl.org/dc/elements/1.1/" xmlnsrdf="http://www.w3.org/1999/02/22-rdf-syntax-ns#" xmlnsXlink="http://www.w3.org/1999/xlink">
    <metadata>
    <rdfRDF>
    <ccWork rdfabout="">
    <dcFormat>image/svg+xml</dcFormat>
    <dctype rdfresource="http://purl.org/dc/dcmitype/StillImage"/>
    <dcTitle/>
    </ccWork>
    </rdfRDF>
    </metadata>
    <g transform="translate(133.12 -224.04)">
    <g transform="translate(.13229 -.13229)" fillRule="evenodd">
    <path fill="#577d7a" d="m-131.13 224.47-0.34746 1.6931c0.39314-0.59255 0.85528-1.1582 1.3826-1.6931z"/>
    <path fill="#577d7a" d="m-130.64 228.01c-0.40735 0.90721-0.61435 1.8273-0.61435 2.7321 0 0.69585 0.12416 1.3597 0.36888 1.9738 0.21173 0.53113 0.51104 1.0158 0.8911 1.445h1.6944c-0.2377-0.15146-0.45701-0.32755-0.65605-0.5264-0.95744-0.95574-1.4118-2.2587-1.2782-3.6683 0.0658-0.69566 0.27125-1.3923 0.60999-2.0707 0.34992-0.70079 0.83367-1.361 1.4366-1.9636 0.57492-0.57417 1.2262-1.0407 1.9352-1.3864 0.0527-0.0262 0.10559-0.0512 0.15885-0.0756h-1.638c-0.37172 0.27202-0.72656 0.57587-1.0619 0.91082-0.80144 0.8003-1.4228 1.685-1.8466 2.6293"/>
    <path fill="#577d7a" d="m-131.57 230.74c0-0.95081 0.21628-1.9147 0.64241-2.8634 0.43995-0.98038 1.0835-1.8969 1.9128-2.7247 0.24415-0.24415 0.49853-0.47218 0.76182-0.68411h-1.3798c-0.0555 0.0533-0.11051 0.10729-0.16529 0.16131-0.76581 0.76467-1.3923 1.5957-1.8688 2.4775l-0.97394 4.7484c0.0688 0.51104 0.19752 1.0037 0.38556 1.4728 0.11525 0.28813 0.2523 0.56526 0.4102 0.83083h1.4368c-0.32092-0.40281-0.57872-0.84694-0.76998-1.3267-0.25988-0.65094-0.39181-1.3553-0.39181-2.0919"/>
    <path fill="#577d7a" d="m-123.31 230.76c0.57549-0.57473 0.89243-1.2359 0.89243-1.8618 0-0.48185-0.18274-0.91859-0.5283-1.264-0.16491-0.16434-0.35996-0.2885-0.5789-0.3702l-0.11089 0.54156c0.10919 0.0595 0.20908 0.13345 0.29685 0.22083 0.30291 0.30235 0.44905 0.71804 0.41304 1.1703-0.036 0.44944-0.2523 0.89337-0.60999 1.2503-0.21666 0.21666-0.47389 0.38859-0.74533 0.50554l-0.10426 0.50649c0.38025-0.14197 0.75197-0.37626 1.0754-0.69908"/>
    <path fill="#577d7a" d="m-123.24 229.17c0.0286-0.35731-0.0851-0.68316-0.32035-0.91783-0.0426-0.0421-0.0885-0.0804-0.138-0.11411l-0.4953 2.4151c0.15714-0.0904 0.30537-0.20244 0.43654-0.33418 0.30386-0.30272 0.48716-0.67539 0.51711-1.049"/>
    <path fill="#577d7a" d="m-122.09 228.9c0 0.7114-0.35029 1.4535-0.98663 2.0887-0.39996 0.39902-0.87708 0.68695-1.3773 0.83689l-0.12227 0.59502c0.64468-0.17098 1.2804-0.54498 1.819-1.0833 1.3987-1.3961 1.6105-3.2907 0.49208-4.4074-0.29153-0.29153-0.65415-0.49284-1.0623-0.59615l-0.12644 0.61644c0.28187 0.0978 0.53436 0.25267 0.74097 0.45929 0.40755 0.40641 0.62288 0.92181 0.62288 1.4905"/>
    <path fill="#577d7a" d="m-132.56 233.45c-0.10122-0.25286-0.18614-0.51123-0.25457-0.77566l-0.30518 1.4876h0.89792c-0.12738-0.22936-0.24017-0.46687-0.33817-0.71197"/>
    <path fill="#577d7a" d="m-128.47 226.72h0.82836c0.0438-0.0457 0.088-0.0914 0.13326-0.13667 0.87916-0.87707 1.9714-1.4433 3.0926-1.6065l0.10406-0.50915h-0.90323c-0.97052 0.30557-1.9253 0.87328-2.7423 1.6886-0.18273 0.18236-0.35352 0.37058-0.51275 0.56374"/>
    <path fill="#577d7a" d="m-122.53 231.56c-0.62099 0.62003-1.3654 1.0382-2.1173 1.2035l-0.13117 0.64069c0.9728-0.19107 1.9384-0.70893 2.694-1.4634 0.85679-0.85489 1.4109-1.8927 1.5612-2.9224 0.0271-0.18634 0.0402-0.36945 0.0404-0.54933 0-0.0423-7.7e-4 -0.0851-2e-3 -0.12682-0.0301-0.8365-0.35845-1.5856-0.96825-2.1945-0.45493-0.45418-1.031-0.73244-1.6635-0.84314l-0.14558 0.70988c0.46934 0.1162 0.88731 0.34708 1.2253 0.68411 1.2475 1.2458 1.0357 3.3356-0.49265 4.8613"/>
    <path fill="#577d7a" d="m-125.61 228.1h-0.59274c-0.4828 0.52791-0.75727 1.1682-0.75727 1.7758 0 0.17875 0.0225 0.34916 0.0667 0.50991h0.57208c-0.0978-0.19733-0.14937-0.41968-0.14937-0.6534 0-0.51161 0.23543-1.0287 0.66325-1.456 0.0631-0.0629 0.12909-0.12188 0.19733-0.17628"/>
    <path fill="#577d7a" d="m-124.69 226.33c-0.35068 0.0771-0.69624 0.21002-1.024 0.39332h0.94361z"/>
    <path fill="#577d7a" d="m-121.23 225.92c0.43313 0.43238 0.73888 0.93299 0.90854 1.4888 5e-3 0.0157 0.01 0.0319 0.0144 0.048l0.15146-0.73851h0.42877c-0.20282-0.51407-0.51047-0.97886-0.91612-1.3843-0.39276-0.392-0.85717-0.68051-1.3671-0.86817h-0.93868l-0.10729 0.52299c0.15221 0.0269 0.3012 0.0629 0.44754 0.10747 0.53227 0.16492 0.9963 0.44205 1.3784 0.82381"/>
    <path fill="#577d7a" d="m-119.38 226.72h1.0935c-0.20775-0.84485-0.61833-1.6118-1.2147-2.2523h-1.7526c0.3086 0.17591 0.59009 0.39011 0.84163 0.64108 0.46763 0.46744 0.8147 1.0088 1.0321 1.6112"/>
    <path fill="#577d7a" d="m-124.62 225.98 0.13743-0.67197c-0.93906 0.16283-1.899 0.63804-2.7034 1.4063h0.87688c0.51939-0.37494 1.0979-0.62743 1.6891-0.73434"/>
    <path fill="#577d7a" d="m-125.83 231.86 7.6e-4 -2e-3h-1.2479c0.32376 0.29874 0.70439 0.50099 1.1233 0.59767z"/>
    <path fill="#577d7a" d="m-128.87 230.25c0 0.0459 1e-3 0.0917 3e-3 0.13724h0.72733c-0.012-0.11013-0.018-0.22159-0.018-0.33533 0-0.66041 0.20093-1.3358 0.56904-1.9503h-0.68751c-0.38802 0.69131-0.59369 1.4243-0.59369 2.1484"/>
    <path fill="#577d7a" d="m-126.02 232.77c-0.51275-0.1162-0.97469-0.37228-1.3597-0.75594-0.05-0.0504-0.0976-0.10218-0.1433-0.15601h-0.94873c0.14008 0.25742 0.3158 0.49322 0.52412 0.70155 0.48223 0.48128 1.0924 0.78191 1.7868 0.88541z"/>
    <path fill="#577d7a" d="m-129.91 229.99c-0.12416 1.3125 0.29684 2.5241 1.1857 3.4118 0.31675 0.31561 0.68903 0.5681 1.1091 0.75272h1.3113l0.0828-0.39731c-0.75519-0.116-1.4203-0.44678-1.9484-0.97393-0.27145-0.27069-0.49247-0.58459-0.65814-0.92788h-0.76334l0.29438-1.4702h0.11317c-2e-3 -0.0455-3e-3 -0.0912-3e-3 -0.13743 0-0.72467 0.19013-1.4548 0.55028-2.1486h-0.18823l0.25666-1.26c-0.76997 0.97526-1.2399 2.0692-1.3422 3.1508"/>
    <path fill="#577d7a" d="m-127.83 230.05c0 0.11431 7e-3 0.22614 0.0199 0.33533h0.5882c-0.0381-0.16378-0.058-0.33476-0.058-0.50972 0-0.36243 0.0811-0.72827 0.24074-1.0875 0.1071-0.2413 0.24718-0.47142 0.41702-0.68846h-0.58061c-0.40451 0.60771-0.62724 1.2886-0.62724 1.9503"/>
    <path fill="#577d7a" d="m-124.85 233.74-0.0851 0.41532h1.0793c0.88731-0.3194 1.7246-0.84238 2.4085-1.5257 0.0343-0.0337 0.0679-0.0688 0.10103-0.10274l0.26785-1.303c-0.22368 0.3304-0.48489 0.64658-0.7804 0.94153-0.83367 0.83271-1.912 1.3927-2.9912 1.5746"/>
    <path fill="#577d7a" d="m-121.68 234.16 0.22008-1.07c-0.47522 0.42935-1.0103 0.78988-1.578 1.07z"/>
    <path fill="#577d7a" d="m-119.45 228.47h-0.72182c0 0.19562-0.0138 0.39447-0.0432 0.59578-0.0834 0.57151-0.28282 1.1443-0.58232 1.6903h0.72032c0.31371-0.61909 0.51672-1.2626 0.5952-1.9031 0.0157-0.12832 0.026-0.2559 0.0318-0.3829"/>
    <path fill="#577d7a" d="m-117.56 224.47h-1.5157c0.54781 0.65511 0.92465 1.4194 1.1172 2.2523h1.172c-0.0724-0.50043-0.19998-0.98322-0.38196-1.4427-0.11126-0.28092-0.24206-0.55103-0.39162-0.80959"/>
    <path fill="#577d7a" d="m-117.19 224.47c0.12056 0.22292 0.22804 0.45342 0.32225 0.69169 0.1143 0.28812 0.20756 0.58402 0.28035 0.88788l0.32376-1.5796z"/>
    <path fill="#577d7a" d="m-117.85 228.72c-0.072 0.68316-0.25116 1.3669-0.52696 2.0318h0.74059l0.46195-2.2862h-0.65397c-5e-3 0.0846-0.0127 0.16947-0.0216 0.25439"/>
    <path fill="#577d7a" d="m-118.15 228.47h-0.97621c-5e-3 0.13989-0.0169 0.27998-0.0339 0.42195-0.0772 0.62724-0.26671 1.2564-0.5571 1.8641h0.99137c0.294-0.67501 0.48318-1.3707 0.55635-2.0654 8e-3 -0.0737 0.0142-0.14691 0.0195-0.22065"/>
    <path fill="#577d7a" d="m-125.58 228.51c-0.36736 0.36679-0.56961 0.80296-0.56961 1.2291 0 0.24623 0.0694 0.46896 0.20112 0.6534h0.34404l0.44583-2.2068c-0.14974 0.0862-0.29248 0.19525-0.42138 0.32433"/>
    </g>
    </g>
</svg>